<svg xmlns="http://www.w3.org/2000/svg" width="38" height="32" fill="none"><g clip-path="url(#a)"><path fill="#EEE" d="M22.712 6.738H14.3a1.684 1.684 0 0 1 0-3.368h8.412a1.684 1.684 0 0 1 0 3.368ZM0 0v29.474A2.533 2.533 0 0 0 2.523 32H34.49a2.533 2.533 0 0 0 2.523-2.526V0H0Z"/><path fill="#DB4437" d="M18.507 13.473c-5.642 0-10.6 2.926-13.444 7.345v11.18h7.792l5.652-9.8h14.239c-2.646-5.178-8.03-8.725-14.24-8.725Z"/><path fill="#0F9D58" d="M5.058 20.824a15.943 15.943 0 0 0-2.535 8.65c0 .86.068 1.703.2 2.526h8.845l-6.51-11.176Z"/><path fill="#FFCD40" d="M34.489 29.474c0-2.619-.629-5.091-1.743-7.274h-14.24l5.652 9.8H34.29c.132-.823.2-1.667.2-2.526Z"/><path fill="#F1F1F1" d="M18.507 22.2c-4.014 0-7.265 3.256-7.265 7.274 0 .89.16 1.74.45 2.526h1.577a5.792 5.792 0 0 1-.575-2.526 5.816 5.816 0 0 1 5.813-5.82 5.816 5.816 0 0 1 5.813 5.82c0 .906-.206 1.762-.576 2.526h1.577a7.27 7.27 0 0 0 .45-2.526c0-4.018-3.252-7.274-7.264-7.274Z"/><path fill="#4285F4" d="M18.507 23.655a5.816 5.816 0 0 0-5.813 5.82c0 .905.206 1.76.575 2.525h10.475c.37-.764.576-1.622.576-2.526a5.817 5.817 0 0 0-5.813-5.82Z"/><path fill="#212121" d="M0 0v16h37.012V0H0Zm22.712 6.738H14.3a1.684 1.684 0 0 1 0-3.368h8.413a1.684 1.684 0 1 1-.002 3.368Z" opacity=".05"/><path fill="#212121" d="M37.012 15.79H0V16h37.012v-.21Z" opacity=".02"/><path fill="#fff" d="M37.012 16H0v.212h37.012v-.211Z" opacity=".05"/><path fill="#212121" d="M0 0v.211h37.012V0H0Zm22.712 6.738H14.3c-.893 0-1.623-.699-1.676-1.578a.739.739 0 0 0-.007.105c0 .93.754 1.683 1.683 1.683h8.412c.93 0 1.683-.752 1.683-1.683a.739.739 0 0 0-.007-.105 1.682 1.682 0 0 1-1.677 1.578Z" opacity=".02"/><path fill="#231F20" d="M34.489 31.788H2.523A2.532 2.532 0 0 1 0 29.264v.211A2.533 2.533 0 0 0 2.523 32H34.49a2.533 2.533 0 0 0 2.523-2.526v-.211a2.531 2.531 0 0 1-2.523 2.525ZM14.3 3.368h8.41c.894 0 1.624.7 1.677 1.579.002-.035.007-.07.007-.105 0-.93-.754-1.685-1.683-1.685H14.3c-.93 0-1.683.754-1.683 1.685 0 .035.002.07.007.105A1.68 1.68 0 0 1 14.3 3.368Z" opacity=".1"/></g><defs><clipPath id="a"><rect width="37.012" height="32" fill="#fff" rx="8"/></clipPath></defs></svg>