<svg xmlns="http://www.w3.org/2000/svg" width="222" height="40" fill="none"><g clip-path="url(#a)"><path fill="#29BA98" d="M56.805 6.259c-.669-2.447-2.627-4.377-5.112-5.035C47.155 0 29 0 29 0S10.845 0 6.306 1.176c-2.436.66-4.443 2.636-5.112 5.083C0 10.729 0 20 0 20s0 9.318 1.194 13.741c.67 2.447 2.628 4.377 5.112 5.035C10.893 40 29 40 29 40s18.155 0 22.693-1.176c2.485-.66 4.444-2.589 5.112-5.036C58 29.318 58 20.048 58 20.048s.047-9.319-1.195-13.79Z"/><path fill="#fff" d="M33.125 15.5h-8.25c.344-2.125.89-3.844 1.64-5.156.75-1.313 1.579-1.969 2.485-1.969.906 0 1.734.656 2.484 1.969.75 1.312 1.297 3.031 1.641 5.156ZM24.641 23a32.14 32.14 0 0 1 0-6h8.718a32.14 32.14 0 0 1 0 6h-8.718Zm15.093-7.5h-5.062c-.469-2.875-1.25-5.094-2.344-6.656a11.14 11.14 0 0 1 4.406 2.531 11.51 11.51 0 0 1 3 4.125ZM25.672 8.844c-1.125 1.562-1.906 3.781-2.344 6.656h-5.062a11.77 11.77 0 0 1 2.953-4.125 11.537 11.537 0 0 1 4.453-2.531ZM40.203 17c.281 1 .422 2 .422 3s-.14 2-.422 3H34.86c.094-1.031.141-2.031.141-3 0-.969-.047-1.969-.14-3h5.343ZM23 20c0 .938.047 1.938.14 3h-5.343a11.38 11.38 0 0 1-.422-3c0-.969.14-1.969.422-3h5.344A33.165 33.165 0 0 0 23 20Zm1.875 4.5h8.25c-.344 2.125-.89 3.844-1.64 5.156-.75 1.313-1.579 1.969-2.485 1.969-.906 0-1.734-.656-2.484-1.969-.75-1.312-1.297-3.031-1.641-5.156Zm7.453 6.656c1.125-1.562 1.906-3.781 2.344-6.656h5.062a11.96 11.96 0 0 1-3 4.172 11.427 11.427 0 0 1-4.406 2.484ZM18.266 24.5h5.062c.469 2.875 1.25 5.094 2.344 6.656a11.842 11.842 0 0 1-4.453-2.484 12.24 12.24 0 0 1-2.953-4.172Z"/></g><path fill="#29BA98" d="M80.688 6.32V30h-4.48V6.32h4.48ZM83.962 21.072c0-1.792.352-3.381 1.056-4.768.726-1.387 1.696-2.453 2.912-3.2 1.238-.747 2.614-1.12 4.128-1.12 1.323 0 2.475.267 3.456.8 1.003.533 1.803 1.205 2.4 2.016v-2.528h4.512V30h-4.512v-2.592c-.576.832-1.376 1.525-2.4 2.08-1.002.533-2.165.8-3.488.8-1.493 0-2.858-.384-4.096-1.152-1.216-.768-2.186-1.845-2.912-3.232-.704-1.408-1.056-3.019-1.056-4.832Zm13.952.064c0-1.088-.213-2.016-.64-2.784-.426-.79-1.002-1.387-1.728-1.792a4.53 4.53 0 0 0-2.336-.64c-.832 0-1.6.203-2.304.608-.704.405-1.28 1.003-1.728 1.792-.426.768-.64 1.685-.64 2.752 0 1.067.214 2.005.64 2.816.448.79 1.024 1.397 1.728 1.824.726.427 1.494.64 2.304.64.832 0 1.61-.203 2.336-.608a4.656 4.656 0 0 0 1.728-1.792c.427-.79.64-1.728.64-2.816ZM116.626 12.016c2.112 0 3.818.672 5.12 2.016 1.301 1.323 1.952 3.179 1.952 5.568V30h-4.48v-9.792c0-1.408-.352-2.485-1.056-3.232-.704-.768-1.664-1.152-2.88-1.152-1.238 0-2.219.384-2.944 1.152-.704.747-1.056 1.824-1.056 3.232V30h-4.48V12.272h4.48v2.208a6.065 6.065 0 0 1 2.272-1.792c.938-.448 1.962-.672 3.072-.672ZM134.902 11.984c1.323 0 2.485.267 3.488.8 1.003.512 1.792 1.184 2.368 2.016v-2.528h4.512v17.856c0 1.643-.331 3.104-.992 4.384-.661 1.301-1.653 2.325-2.976 3.072-1.323.768-2.923 1.152-4.8 1.152-2.517 0-4.587-.587-6.208-1.76-1.6-1.173-2.507-2.773-2.72-4.8h4.448c.235.81.736 1.45 1.504 1.92.789.49 1.739.736 2.848.736 1.301 0 2.357-.395 3.168-1.184.811-.768 1.216-1.941 1.216-3.52v-2.752c-.576.832-1.376 1.525-2.4 2.08-1.003.555-2.155.832-3.456.832-1.493 0-2.859-.384-4.096-1.152-1.237-.768-2.219-1.845-2.944-3.232-.704-1.408-1.056-3.019-1.056-4.832 0-1.792.352-3.381 1.056-4.768.725-1.387 1.696-2.453 2.912-3.2 1.237-.747 2.613-1.12 4.128-1.12Zm5.856 9.152c0-1.088-.213-2.016-.64-2.784-.427-.79-1.003-1.387-1.728-1.792a4.529 4.529 0 0 0-2.336-.64c-.832 0-1.6.203-2.304.608-.704.405-1.28 1.003-1.728 1.792-.427.768-.64 1.685-.64 2.752 0 1.067.213 2.005.64 2.816.448.79 1.024 1.397 1.728 1.824.725.427 1.493.64 2.304.64.832 0 1.611-.203 2.336-.608a4.66 4.66 0 0 0 1.728-1.792c.427-.79.64-1.728.64-2.816ZM151.63 30.224c-.811 0-1.483-.245-2.016-.736-.512-.512-.768-1.141-.768-1.888 0-.747.256-1.365.768-1.856.533-.512 1.205-.768 2.016-.768.789 0 1.44.256 1.952.768.512.49.768 1.11.768 1.856 0 .747-.256 1.376-.768 1.888-.512.49-1.163.736-1.952.736ZM156.806 21.072c0-1.792.352-3.381 1.056-4.768.725-1.387 1.696-2.453 2.912-3.2 1.237-.747 2.613-1.12 4.128-1.12 1.323 0 2.475.267 3.456.8 1.003.533 1.803 1.205 2.4 2.016v-2.528h4.512V30h-4.512v-2.592c-.576.832-1.376 1.525-2.4 2.08-1.003.533-2.165.8-3.488.8-1.493 0-2.859-.384-4.096-1.152-1.216-.768-2.187-1.845-2.912-3.232-.704-1.408-1.056-3.019-1.056-4.832Zm13.952.064c0-1.088-.213-2.016-.64-2.784-.427-.79-1.003-1.387-1.728-1.792a4.529 4.529 0 0 0-2.336-.64c-.832 0-1.6.203-2.304.608-.704.405-1.28 1.003-1.728 1.792-.427.768-.64 1.685-.64 2.752 0 1.067.213 2.005.64 2.816.448.79 1.024 1.397 1.728 1.824.725.427 1.493.64 2.304.64.832 0 1.611-.203 2.336-.608a4.66 4.66 0 0 0 1.728-1.792c.427-.79.64-1.728.64-2.816ZM184.126 14.832c.576-.81 1.365-1.483 2.368-2.016 1.024-.555 2.186-.832 3.488-.832 1.514 0 2.88.373 4.096 1.12 1.237.747 2.208 1.813 2.912 3.2.725 1.365 1.088 2.955 1.088 4.768 0 1.813-.363 3.424-1.088 4.832-.704 1.387-1.675 2.464-2.912 3.232-1.216.768-2.582 1.152-4.096 1.152-1.302 0-2.454-.267-3.456-.8-.982-.533-1.782-1.205-2.4-2.016v10.976h-4.48V12.272h4.48v2.56Zm9.376 6.24c0-1.067-.224-1.984-.672-2.752-.427-.79-1.003-1.387-1.728-1.792a4.537 4.537 0 0 0-2.304-.608c-.811 0-1.579.213-2.304.64-.704.405-1.28 1.003-1.728 1.792-.427.79-.64 1.717-.64 2.784 0 1.067.213 1.995.64 2.784.448.79 1.024 1.397 1.728 1.824a4.651 4.651 0 0 0 2.304.608c.832 0 1.6-.213 2.304-.64.725-.427 1.301-1.035 1.728-1.824.448-.79.672-1.728.672-2.816ZM205.813 14.832c.576-.81 1.365-1.483 2.368-2.016 1.024-.555 2.187-.832 3.488-.832 1.515 0 2.88.373 4.096 1.12 1.237.747 2.208 1.813 2.912 3.2.725 1.365 1.088 2.955 1.088 4.768 0 1.813-.363 3.424-1.088 4.832-.704 1.387-1.675 2.464-2.912 3.232-1.216.768-2.581 1.152-4.096 1.152-1.301 0-2.453-.267-3.456-.8-.981-.533-1.781-1.205-2.4-2.016v10.976h-4.48V12.272h4.48v2.56Zm9.376 6.24c0-1.067-.224-1.984-.672-2.752-.427-.79-1.003-1.387-1.728-1.792a4.537 4.537 0 0 0-2.304-.608c-.811 0-1.579.213-2.304.64-.704.405-1.28 1.003-1.728 1.792-.427.79-.64 1.717-.64 2.784 0 1.067.213 1.995.64 2.784.448.79 1.024 1.397 1.728 1.824a4.651 4.651 0 0 0 2.304.608c.832 0 1.6-.213 2.304-.64.725-.427 1.301-1.035 1.728-1.824.448-.79.672-1.728.672-2.816Z"/><defs><clipPath id="a"><path fill="#fff" d="M0 0h58v40H0z"/></clipPath></defs></svg>