<svg width="156" height="28" viewBox="0 0 156 28" fill="none" xmlns="http://www.w3.org/2000/svg">
<g clip-path="url(#clip0_1773_16332)">
<path d="M39.7638 4.38118C39.2956 2.66824 37.9244 1.31765 36.1853 0.856471C33.0083 0 20.2999 0 20.2999 0C20.2999 0 7.59157 0 4.41448 0.823529C2.70888 1.28471 1.30428 2.66824 0.836076 4.38118C0 7.51059 0 14 0 14C0 14 0 20.5224 0.836076 23.6188C1.30428 25.3318 2.67544 26.6824 4.41448 27.1435C7.62501 28 20.2999 28 20.2999 28C20.2999 28 33.0083 28 36.1853 27.1765C37.9244 26.7153 39.2956 25.3647 39.7638 23.6518C40.5998 20.5224 40.5998 14.0329 40.5998 14.0329C40.5998 14.0329 40.6333 7.51059 39.7638 4.38118V4.38118Z" fill="#29BA98"/>
<path d="M23.1871 10.85H17.4121C17.6527 9.36255 18.0355 8.15942 18.5605 7.24067C19.0855 6.32192 19.6652 5.86255 20.2996 5.86255C20.934 5.86255 21.5137 6.32192 22.0387 7.24067C22.5637 8.15942 22.9465 9.36255 23.1871 10.85ZM17.248 16.1C17.1824 15.4 17.1496 14.7 17.1496 14C17.1496 13.3 17.1824 12.6 17.248 11.9H23.3512C23.4168 12.6 23.4496 13.3 23.4496 14C23.4496 14.7 23.4168 15.4 23.3512 16.1H17.248ZM27.8137 10.85H24.2699C23.9418 8.83755 23.3949 7.28442 22.6293 6.19067C23.7887 6.54067 24.8168 7.1313 25.7137 7.96255C26.6324 8.77192 27.3324 9.73442 27.8137 10.85ZM17.9699 6.19067C17.1824 7.28442 16.6355 8.83755 16.3293 10.85H12.7855C13.2668 9.73442 13.9559 8.77192 14.8527 7.96255C15.7715 7.1313 16.8105 6.54067 17.9699 6.19067ZM28.1418 11.9C28.3387 12.6 28.4371 13.3 28.4371 14C28.4371 14.7 28.3387 15.4 28.1418 16.1H24.4012C24.4668 15.3782 24.4996 14.6782 24.4996 14C24.4996 13.3219 24.4668 12.6219 24.4012 11.9H28.1418ZM16.0996 14C16.0996 14.6563 16.1324 15.3563 16.198 16.1H12.4574C12.2605 15.3782 12.1621 14.6782 12.1621 14C12.1621 13.3219 12.2605 12.6219 12.4574 11.9H16.198C16.1324 12.6219 16.0996 13.3219 16.0996 14ZM17.4121 17.15H23.1871C22.9465 18.6375 22.5637 19.8407 22.0387 20.7594C21.5137 21.6782 20.934 22.1375 20.2996 22.1375C19.6652 22.1375 19.0855 21.6782 18.5605 20.7594C18.0355 19.8407 17.6527 18.6375 17.4121 17.15ZM22.6293 21.8094C23.4168 20.7157 23.9637 19.1625 24.2699 17.15H27.8137C27.3324 18.2657 26.6324 19.2391 25.7137 20.0704C24.8168 20.8797 23.7887 21.4594 22.6293 21.8094ZM12.7855 17.15H16.3293C16.6574 19.1625 17.2043 20.7157 17.9699 21.8094C16.8105 21.4594 15.7715 20.8797 14.8527 20.0704C13.9559 19.2391 13.2668 18.2657 12.7855 17.15Z" fill="white"/>
</g>
<path d="M56.4817 4.42407V21.0001H53.3457V4.42407H56.4817Z" fill="#29BA98"/>
<path d="M58.7737 14.7505C58.7737 13.4961 59.0201 12.3835 59.5129 11.4129C60.0206 10.4422 60.7001 9.69554 61.5513 9.17287C62.4174 8.65021 63.3806 8.38887 64.4409 8.38887C65.3667 8.38887 66.1731 8.57554 66.8601 8.94887C67.5619 9.32221 68.1219 9.79261 68.5401 10.3601V8.59047H71.6985V21.0001H68.5401V19.1857C68.1369 19.7681 67.5769 20.2534 66.8601 20.6417C66.1582 21.015 65.3443 21.2017 64.4185 21.2017C63.3731 21.2017 62.4174 20.9329 61.5513 20.3953C60.7001 19.8577 60.0206 19.1035 59.5129 18.1329C59.0201 17.1473 58.7737 16.0198 58.7737 14.7505ZM68.5401 14.7953C68.5401 14.0337 68.3907 13.3841 68.0921 12.8465C67.7934 12.2939 67.3902 11.8758 66.8825 11.5921C66.3747 11.2934 65.8297 11.1441 65.2473 11.1441C64.6649 11.1441 64.1273 11.2859 63.6345 11.5697C63.1417 11.8534 62.7385 12.2715 62.4249 12.8241C62.1262 13.3617 61.9769 14.0038 61.9769 14.7505C61.9769 15.4971 62.1262 16.1542 62.4249 16.7217C62.7385 17.2742 63.1417 17.6998 63.6345 17.9985C64.1422 18.2971 64.6798 18.4465 65.2473 18.4465C65.8297 18.4465 66.3747 18.3046 66.8825 18.0209C67.3902 17.7222 67.7934 17.3041 68.0921 16.7665C68.3907 16.2139 68.5401 15.5569 68.5401 14.7953Z" fill="#29BA98"/>
<path d="M81.6381 8.41127C83.1165 8.41127 84.3112 8.88167 85.2221 9.82247C86.1331 10.7483 86.5885 12.0475 86.5885 13.7201V21.0001H83.4525V14.1457C83.4525 13.1601 83.2061 12.4059 82.7133 11.8833C82.2205 11.3457 81.5485 11.0769 80.6973 11.0769C79.8312 11.0769 79.1443 11.3457 78.6365 11.8833C78.1437 12.4059 77.8973 13.1601 77.8973 14.1457V21.0001H74.7613V8.59047H77.8973V10.1361C78.3155 9.59847 78.8456 9.18034 79.4877 8.88167C80.1448 8.56807 80.8616 8.41127 81.6381 8.41127Z" fill="#29BA98"/>
<path d="M94.4315 8.38887C95.3574 8.38887 96.1712 8.57554 96.8731 8.94887C97.575 9.30727 98.1275 9.77767 98.5307 10.3601V8.59047H101.689V21.0897C101.689 22.2395 101.458 23.2625 100.995 24.1585C100.532 25.0694 99.8374 25.7862 98.9115 26.3089C97.9856 26.8465 96.8656 27.1153 95.5515 27.1153C93.7894 27.1153 92.3408 26.7046 91.2059 25.8833C90.0859 25.0619 89.4512 23.9419 89.3019 22.5233H92.4155C92.5798 23.0907 92.9307 23.5387 93.4683 23.8673C94.0208 24.2107 94.6854 24.3825 95.4619 24.3825C96.3728 24.3825 97.112 24.1062 97.6795 23.5537C98.247 23.0161 98.5307 22.1947 98.5307 21.0897V19.1633C98.1275 19.7457 97.5675 20.231 96.8507 20.6193C96.1488 21.0075 95.3424 21.2017 94.4315 21.2017C93.3862 21.2017 92.4304 20.9329 91.5643 20.3953C90.6982 19.8577 90.0112 19.1035 89.5035 18.1329C89.0107 17.1473 88.7643 16.0198 88.7643 14.7505C88.7643 13.4961 89.0107 12.3835 89.5035 11.4129C90.0112 10.4422 90.6907 9.69554 91.5419 9.17287C92.408 8.65021 93.3712 8.38887 94.4315 8.38887ZM98.5307 14.7953C98.5307 14.0337 98.3814 13.3841 98.0827 12.8465C97.784 12.2939 97.3808 11.8758 96.8731 11.5921C96.3654 11.2934 95.8203 11.1441 95.2379 11.1441C94.6555 11.1441 94.1179 11.2859 93.6251 11.5697C93.1323 11.8534 92.7291 12.2715 92.4155 12.8241C92.1168 13.3617 91.9675 14.0038 91.9675 14.7505C91.9675 15.4971 92.1168 16.1542 92.4155 16.7217C92.7291 17.2742 93.1323 17.6998 93.6251 17.9985C94.1328 18.2971 94.6704 18.4465 95.2379 18.4465C95.8203 18.4465 96.3654 18.3046 96.8731 18.0209C97.3808 17.7222 97.784 17.3041 98.0827 16.7665C98.3814 16.2139 98.5307 15.5569 98.5307 14.7953Z" fill="#29BA98"/>
<path d="M106.141 21.1569C105.573 21.1569 105.103 20.9851 104.73 20.6417C104.371 20.2833 104.192 19.8427 104.192 19.3201C104.192 18.7974 104.371 18.3643 104.73 18.0209C105.103 17.6625 105.573 17.4833 106.141 17.4833C106.693 17.4833 107.149 17.6625 107.507 18.0209C107.866 18.3643 108.045 18.7974 108.045 19.3201C108.045 19.8427 107.866 20.2833 107.507 20.6417C107.149 20.9851 106.693 21.1569 106.141 21.1569Z" fill="#29BA98"/>
<path d="M109.764 14.7505C109.764 13.4961 110.011 12.3835 110.504 11.4129C111.011 10.4422 111.691 9.69554 112.542 9.17287C113.408 8.65021 114.371 8.38887 115.432 8.38887C116.357 8.38887 117.164 8.57554 117.851 8.94887C118.553 9.32221 119.113 9.79261 119.531 10.3601V8.59047H122.689V21.0001H119.531V19.1857C119.128 19.7681 118.568 20.2534 117.851 20.6417C117.149 21.015 116.335 21.2017 115.409 21.2017C114.364 21.2017 113.408 20.9329 112.542 20.3953C111.691 19.8577 111.011 19.1035 110.504 18.1329C110.011 17.1473 109.764 16.0198 109.764 14.7505ZM119.531 14.7953C119.531 14.0337 119.381 13.3841 119.083 12.8465C118.784 12.2939 118.381 11.8758 117.873 11.5921C117.365 11.2934 116.82 11.1441 116.238 11.1441C115.656 11.1441 115.118 11.2859 114.625 11.5697C114.132 11.8534 113.729 12.2715 113.416 12.8241C113.117 13.3617 112.968 14.0038 112.968 14.7505C112.968 15.4971 113.117 16.1542 113.416 16.7217C113.729 17.2742 114.132 17.6998 114.625 17.9985C115.133 18.2971 115.67 18.4465 116.238 18.4465C116.82 18.4465 117.365 18.3046 117.873 18.0209C118.381 17.7222 118.784 17.3041 119.083 16.7665C119.381 16.2139 119.531 15.5569 119.531 14.7953Z" fill="#29BA98"/>
<path d="M128.888 10.3825C129.291 9.81501 129.844 9.34461 130.546 8.97127C131.262 8.58301 132.076 8.38887 132.987 8.38887C134.047 8.38887 135.003 8.65021 135.854 9.17287C136.72 9.69554 137.4 10.4422 137.893 11.4129C138.4 12.3686 138.654 13.4811 138.654 14.7505C138.654 16.0198 138.4 17.1473 137.893 18.1329C137.4 19.1035 136.72 19.8577 135.854 20.3953C135.003 20.9329 134.047 21.2017 132.987 21.2017C132.076 21.2017 131.27 21.015 130.568 20.6417C129.881 20.2683 129.321 19.7979 128.888 19.2305V26.9137H125.752V8.59047H128.888V10.3825ZM135.451 14.7505C135.451 14.0038 135.294 13.3617 134.981 12.8241C134.682 12.2715 134.279 11.8534 133.771 11.5697C133.278 11.2859 132.741 11.1441 132.158 11.1441C131.591 11.1441 131.053 11.2934 130.546 11.5921C130.053 11.8758 129.65 12.2939 129.336 12.8465C129.037 13.399 128.888 14.0486 128.888 14.7953C128.888 15.5419 129.037 16.1915 129.336 16.7441C129.65 17.2966 130.053 17.7222 130.546 18.0209C131.053 18.3046 131.591 18.4465 132.158 18.4465C132.741 18.4465 133.278 18.2971 133.771 17.9985C134.279 17.6998 134.682 17.2742 134.981 16.7217C135.294 16.1691 135.451 15.5121 135.451 14.7505Z" fill="#29BA98"/>
<path d="M144.069 10.3825C144.472 9.81501 145.025 9.34461 145.727 8.97127C146.444 8.58301 147.257 8.38887 148.168 8.38887C149.229 8.38887 150.184 8.65021 151.036 9.17287C151.902 9.69554 152.581 10.4422 153.074 11.4129C153.582 12.3686 153.836 13.4811 153.836 14.7505C153.836 16.0198 153.582 17.1473 153.074 18.1329C152.581 19.1035 151.902 19.8577 151.036 20.3953C150.184 20.9329 149.229 21.2017 148.168 21.2017C147.257 21.2017 146.451 21.015 145.749 20.6417C145.062 20.2683 144.502 19.7979 144.069 19.2305V26.9137H140.933V8.59047H144.069V10.3825ZM150.632 14.7505C150.632 14.0038 150.476 13.3617 150.162 12.8241C149.863 12.2715 149.46 11.8534 148.952 11.5697C148.46 11.2859 147.922 11.1441 147.34 11.1441C146.772 11.1441 146.235 11.2934 145.727 11.5921C145.234 11.8758 144.831 12.2939 144.517 12.8465C144.219 13.399 144.069 14.0486 144.069 14.7953C144.069 15.5419 144.219 16.1915 144.517 16.7441C144.831 17.2966 145.234 17.7222 145.727 18.0209C146.235 18.3046 146.772 18.4465 147.34 18.4465C147.922 18.4465 148.46 18.2971 148.952 17.9985C149.46 17.6998 149.863 17.2742 150.162 16.7217C150.476 16.1691 150.632 15.5121 150.632 14.7505Z" fill="#29BA98"/>
<defs>
<clipPath id="clip0_1773_16332">
<rect width="40.6" height="28" fill="white"/>
</clipPath>
</defs>
</svg>
