<svg width="237" height="24" viewBox="0 0 237 24" fill="none" xmlns="http://www.w3.org/2000/svg">
<path d="M11.7756 5.26753C12.4663 5.26753 13.0255 4.67494 13.0255 3.95066V1.67905C13.0255 0.921852 12.4663 0.362183 11.7756 0.362183H1.87489C1.3815 0.362183 0.888103 0.559712 0.559176 0.954774C0.197356 1.31691 0 1.81074 0 2.33749V21.5967C0 22.6502 0.789427 23.5721 1.87489 23.5721H11.7756C12.4663 23.5721 13.0255 23.0124 13.0255 22.2552V19.9836C13.0255 19.2593 12.4663 18.6667 11.7756 18.6667H4.80233V13.926H9.83491C10.5257 13.926 11.0848 13.3663 11.0848 12.642V10.4363C11.0848 9.71197 10.5257 9.1523 9.83491 9.1523H4.80233V5.26753H11.7756Z" fill="#AE41FD"/>
<path d="M29.5589 1.34977C29.3615 0.658415 28.7695 0.19751 28.0787 0.19751H25.8091C25.1184 0.19751 24.4934 0.658415 24.296 1.34977L18.0135 21.7613C17.9807 21.893 17.9478 22.0247 17.9478 22.2222C17.9478 22.9794 18.5398 23.572 19.2635 23.572H21.3028C21.9936 23.572 22.5856 23.1111 22.8159 22.3868L23.9671 18.4691H29.8549L31.0391 22.3868C31.2364 23.1111 31.8285 23.572 32.5192 23.572H34.6244C35.348 23.572 35.9401 22.9794 35.9401 22.2222C35.9401 22.0247 35.9072 21.893 35.8743 21.7613L29.5589 1.34977ZM28.4405 13.6955H25.3815L26.9275 8.39504L28.4405 13.6955Z" fill="#A944FD"/>
<path d="M47.3974 19.1934C46.2791 19.1934 44.9963 18.7325 43.6805 17.8436H43.6476C43.4174 17.679 43.1542 17.6132 42.8911 17.6132C42.4306 17.6132 42.003 17.8765 41.8057 18.3374L40.786 20.2798C40.5228 20.8066 40.6873 21.5638 41.1478 21.8601C43.0556 23.2428 45.2923 24 47.4303 24C51.5748 24 54.8641 21.1687 54.8641 16.823C54.8641 14.0247 53.351 11.7531 50.7196 10.6008C49.2394 9.97531 48.8447 9.8107 48.7131 9.77778C46.1146 8.62551 45.6212 7.86831 45.6212 6.81481C45.6212 5.59671 46.4435 4.80658 47.825 4.80658C48.45 4.80658 49.7657 5.00411 51.4761 6.15638L51.509 6.1893C51.7392 6.32099 52.0024 6.38683 52.2655 6.38683C52.726 6.38683 53.1536 6.12346 53.351 5.66255L54.3049 3.72016C54.568 3.19341 54.4036 2.46913 53.9431 2.13992C52.1997 0.790122 49.963 0 47.7921 0C43.7463 0 40.8518 2.8642 40.8518 7.01235C40.8518 10.6337 42.7924 12.5103 45.9172 13.9259L46.7724 14.2881C49.4696 15.4403 49.963 15.7695 50.0946 17.0535C50.0617 18.3704 49.042 19.1934 47.3974 19.1934Z" fill="#A446FC"/>
<path d="M73.5245 0.362183C73.0311 0.362183 72.6363 0.592635 72.4061 1.02062L68.6234 7.96712L64.8408 1.02062C64.6105 0.592635 64.2158 0.362183 63.7224 0.362183H61.2884C60.5647 0.362183 59.9727 0.954775 59.9727 1.71198C59.9727 1.97535 60.0384 2.23872 60.2029 2.46918L66.2223 13.07V22.2552C66.2223 23.0124 66.7485 23.5721 67.4722 23.5721H69.7747C70.4654 23.5721 71.0246 23.0124 71.0246 22.2552V13.07L77.044 2.46918C77.1755 2.23872 77.2742 1.97535 77.2742 1.71198C77.2742 0.954775 76.6822 0.362183 75.9256 0.362183H73.5245Z" fill="#9F49FC"/>
<path d="M105.789 1.67905C105.789 0.921852 105.23 0.362183 104.539 0.362183H91.2504C90.5597 0.362183 90.0005 0.921852 90.0005 1.67905V3.95066C90.0005 4.67494 90.5597 5.26753 91.2504 5.26753H95.4936V22.2552C95.4936 23.0124 96.0199 23.5721 96.7435 23.5721H99.046C99.7367 23.5721 100.296 23.0124 100.296 22.2552V5.26753H104.539C105.23 5.26753 105.789 4.67494 105.789 3.95066V1.67905Z" fill="#9A4BFB"/>
<path d="M125.86 8.72428C125.86 4.0823 122.275 0 117.538 0C112.802 0 109.216 4.0823 109.216 8.72428V15.2428C109.216 19.8848 112.769 24 117.538 24C122.308 24 125.86 19.8848 125.86 15.2428V8.72428ZM121.058 15.2428C121.058 17.1852 119.578 19.0946 117.538 19.0946C115.532 19.0946 114.019 17.1523 114.019 15.2428V8.72428C114.019 6.78189 115.532 4.90535 117.538 4.90535C119.578 4.90535 121.058 6.78189 121.058 8.72428V15.2428Z" fill="#954EFB"/>
<path d="M141.746 0.362183C141.055 0.362183 140.496 0.921852 140.496 1.67905V21.5967C140.496 22.6502 141.285 23.5721 142.37 23.5721H151.416C152.107 23.5721 152.633 23.0124 152.633 22.2552V19.9836C152.633 19.2593 152.107 18.6667 151.416 18.6667H145.298V1.67905C145.298 0.921852 144.739 0.362183 144.048 0.362183H141.746Z" fill="#9050FA"/>
<path d="M169.451 5.26753C170.142 5.26753 170.701 4.67494 170.701 3.95066V1.67905C170.701 0.921852 170.142 0.362183 169.451 0.362183H159.55C159.057 0.362183 158.563 0.559712 158.234 0.954774C157.873 1.31691 157.675 1.81074 157.675 2.33749V21.5967C157.675 22.6502 158.465 23.5721 159.55 23.5721H169.451C170.142 23.5721 170.701 23.0124 170.701 22.2552V19.9836C170.701 19.2593 170.142 18.6667 169.451 18.6667H162.478V13.926H167.51C168.201 13.926 168.76 13.3663 168.76 12.642V10.4363C168.76 9.71197 168.201 9.1523 167.51 9.1523H162.478V5.26753H169.451Z" fill="#8B53FA"/>
<path d="M186.912 1.34977C186.715 0.658415 186.123 0.19751 185.432 0.19751H183.163C182.472 0.19751 181.847 0.658415 181.65 1.34977L175.367 21.7613C175.334 21.893 175.301 22.0247 175.301 22.2222C175.301 22.9794 175.893 23.572 176.617 23.572H178.656C179.347 23.572 179.939 23.1111 180.169 22.3868L181.321 18.4691H187.208L188.393 22.3868C188.59 23.1111 189.182 23.572 189.873 23.572H191.978C192.702 23.572 193.294 22.9794 193.294 22.2222C193.294 22.0247 193.261 21.893 193.228 21.7613L186.912 1.34977ZM185.794 13.6955H182.735L184.281 8.39504L185.794 13.6955Z" fill="#8655F9"/>
<path d="M213.435 7.67082C213.435 3.68728 210.343 0.362183 206.33 0.362183H200.903C200.409 0.362183 199.916 0.559712 199.587 0.954774C199.225 1.31691 199.028 1.81074 199.028 2.33749V22.2552C199.028 23.0124 199.587 23.5721 200.278 23.5721H202.58C203.271 23.5721 203.83 23.0124 203.83 22.2552V14.9795H204.291L208.929 22.8478C209.225 23.3087 209.652 23.5721 210.211 23.5721H212.58C213.303 23.5721 213.862 23.0124 213.862 22.2552C213.862 22.0247 213.797 21.7614 213.665 21.5309L209.257 14.321C211.79 13.1688 213.435 10.5679 213.435 7.67082ZM206.166 5.20169C207.646 5.20169 208.6 6.25519 208.6 7.70375C208.6 9.11938 207.58 10.14 206.166 10.14H203.83V5.20169H206.166Z" fill="#8158F9"/>
<path d="M231.803 22.8149C232.132 23.3087 232.592 23.5721 233.118 23.5721H235.52C236.342 23.5721 237 22.8807 237 22.0247V1.67905C237 0.921852 236.474 0.362183 235.783 0.362183H233.678C232.987 0.362183 232.428 0.921852 232.428 1.67905V13.9918L225.224 1.11938C224.895 0.625556 224.468 0.362183 223.909 0.362183H221.54C220.718 0.362183 220.06 1.05354 220.06 1.90951V22.2552C220.06 23.0124 220.619 23.5721 221.31 23.5721H223.382C224.106 23.5721 224.632 23.0124 224.632 22.2552V9.97535L231.803 22.8149Z" fill="#7C5AF8"/>
</svg>
